<?xml version="1.0" encoding="utf-8"?>
<!-- Generator: Adobe Illustrator 24.3.0, SVG Export Plug-In . SVG Version: 6.00 Build 0)  -->
<svg version="1.1" id="Layer_1" xmlns="http://www.w3.org/2000/svg" xmlns:xlink="http://www.w3.org/1999/xlink" x="0px" y="0px"
	 viewBox="0 0 64 64" style="enable-background:new 0 0 64 64;" xml:space="preserve">
<g>
	<path d="M50,28v25c0,2.8,2.2,5,5,5s5-2.2,5-5V28H50z"/>
	<path d="M48,11.5C48,8.5,45.5,6,42.5,6H9.5C6.5,6,4,8.5,4,11.5v40.9C4,55.5,6.5,58,9.5,58h40c-1-1.4-1.5-3.2-1.5-5V11.5z M24,42h-6
		c-1.1,0-2-0.9-2-2c0-1.1,0.9-2,2-2h6c1.1,0,2,0.9,2,2C26,41.1,25.1,42,24,42z M34,34H18c-1.1,0-2-0.9-2-2c0-1.1,0.9-2,2-2h16
		c1.1,0,2,0.9,2,2C36,33.1,35.1,34,34,34z M34,26H18c-1.1,0-2-0.9-2-2c0-1.1,0.9-2,2-2h16c1.1,0,2,0.9,2,2C36,25.1,35.1,26,34,26z"
		/>
</g>
</svg>
