<?xml version="1.0" encoding="UTF-8" standalone="no"?><!DOCTYPE svg PUBLIC "-//W3C//DTD SVG 1.1//EN" "http://www.w3.org/Graphics/SVG/1.1/DTD/svg11.dtd"><svg width="100%" height="100%" viewBox="0 0 24 24" version="1.1" xmlns="http://www.w3.org/2000/svg" xmlns:xlink="http://www.w3.org/1999/xlink" xml:space="preserve" xmlns:serif="http://www.serif.com/" style="fill-rule:evenodd;clip-rule:evenodd;stroke-linejoin:round;stroke-miterlimit:2;"><g id="Icon"><path d="M20,21.75c0.729,0 1.429,-0.29 1.945,-0.805c0.515,-0.516 0.805,-1.216 0.805,-1.945c0,-3.463 0,-10.537 0,-14c0,-0.729 -0.29,-1.429 -0.805,-1.945c-0.516,-0.515 -1.216,-0.805 -1.945,-0.805c-3.832,0 -12.168,0 -16,0c-0.729,-0 -1.429,0.29 -1.945,0.805c-0.515,0.516 -0.805,1.216 -0.805,1.945c0,3.463 0,10.537 0,14c-0,0.729 0.29,1.429 0.805,1.945c0.516,0.515 1.216,0.805 1.945,0.805l16,-0Zm-0,-1.5l-16,0c-0.332,0 -0.649,-0.132 -0.884,-0.366c-0.234,-0.235 -0.366,-0.552 -0.366,-0.884l0,-14c-0,-0.332 0.132,-0.649 0.366,-0.884c0.235,-0.234 0.552,-0.366 0.884,-0.366l16,0c0.332,-0 0.649,0.132 0.884,0.366c0.234,0.235 0.366,0.552 0.366,0.884l0,14c0,0.332 -0.132,0.649 -0.366,0.884c-0.235,0.234 -0.552,0.366 -0.884,0.366Z"/><path d="M2,8.75l20,0c0.414,0 0.75,-0.336 0.75,-0.75c0,-0.414 -0.336,-0.75 -0.75,-0.75l-20,0c-0.414,0 -0.75,0.336 -0.75,0.75c0,0.414 0.336,0.75 0.75,0.75Z"/><path d="M8.5,6.25l1,0c0.414,0 0.75,-0.336 0.75,-0.75c0,-0.414 -0.336,-0.75 -0.75,-0.75l-1,0c-0.414,0 -0.75,0.336 -0.75,0.75c0,0.414 0.336,0.75 0.75,0.75Z"/><path d="M5,6.25l1,0c0.414,0 0.75,-0.336 0.75,-0.75c0,-0.414 -0.336,-0.75 -0.75,-0.75l-1,0c-0.414,0 -0.75,0.336 -0.75,0.75c0,0.414 0.336,0.75 0.75,0.75Z"/><path d="M8.25,17.5l0,-3c0,-0.414 -0.336,-0.75 -0.75,-0.75c-0.414,-0 -0.75,0.336 -0.75,0.75l0,3c0,0.414 0.336,0.75 0.75,0.75c0.414,-0 0.75,-0.336 0.75,-0.75Z"/><path d="M14.25,17.5l0,-3c-0,-0.414 -0.336,-0.75 -0.75,-0.75c-0.414,0 -0.75,0.336 -0.75,0.75l0,3c-0,0.414 0.336,0.75 0.75,0.75c0.414,0 0.75,-0.336 0.75,-0.75Z"/><path d="M11.25,17.5l0,-6c0,-0.414 -0.336,-0.75 -0.75,-0.75c-0.414,-0 -0.75,0.336 -0.75,0.75l0,6c0,0.414 0.336,0.75 0.75,0.75c0.414,-0 0.75,-0.336 0.75,-0.75Z"/><path d="M17.25,17.5l0,-6c0,-0.414 -0.336,-0.75 -0.75,-0.75c-0.414,-0 -0.75,0.336 -0.75,0.75l0,6c0,0.414 0.336,0.75 0.75,0.75c0.414,-0 0.75,-0.336 0.75,-0.75Z"/></g></svg>