<svg xmlns="http://www.w3.org/2000/svg" viewBox="0 0 64 64"><g id="HOUSE-10" data-name="HOUSE"><polygon points="43.64 23 43.64 9 31.03 9 31.03 37.25 43.64 37.25 43.64 23"/><rect x="25.21" y="35.75" width="3.88" height="1.5"/><rect x="25.21" y="15.75" width="3.88" height="18.5"/><polygon points="50.42 51 50.42 24 45.58 24 45.58 51 43.64 51 43.64 38.75 40.48 38.75 40.48 51 39.03 51 39.03 38.75 31.03 38.75 31.03 51 29.09 51 29.09 38.75 25.21 38.75 25.21 51 23.27 51 23.27 5 8.73 5 8.73 51 0 51 0 53 64 53 64 51 50.42 51"/></g></svg>