<?xml version="1.0" encoding="UTF-8" standalone="no"?> <svg id="Layer_1" data-name="Layer 1" xmlns="http://www.w3.org/2000/svg" viewBox="0 0 128 128"><defs><style>.cls-1{fill:#2d3e50;}</style></defs><title>x</title><path class="cls-1" d="M106.48263,12.6187H78.50314a15.34514,15.34514,0,0,0-29.22018,0H21.51738a4.79192,4.79192,0,0,0-4.7916,4.7916V121.24244a4.79193,4.79193,0,0,0,4.7916,4.7916h84.96525a4.79192,4.79192,0,0,0,4.79159-4.7916V17.4103A4.79191,4.79191,0,0,0,106.48263,12.6187ZM63.893,9.29666a8.00667,8.00667,0,1,1-8.00667,8.00668A8.01,8.01,0,0,1,63.893,9.29666Zm.184,103.59258H47.94816a1.90594,1.90594,0,0,1,0-3.81189H64.077a1.90594,1.90594,0,0,1,0,3.81189Zm16.1267-9.39282H47.94816a1.90594,1.90594,0,0,1,0-3.81187H80.20372a1.90594,1.90594,0,1,1,0,3.81187ZM40.02278,92.88861a107.73771,107.73771,0,0,1,.93479-12.4175,4.9383,4.9383,0,0,1,2.65676-3.583c4.62474-2.306,14.77266-5.70927,14.77266-5.70927V67.829l-.28236-.21177a9.71048,9.71048,0,0,1-3.68353-6.16062l-.05562-.35937h-.27594a3.73876,3.73876,0,0,1-3.46107-2.32735,4.06475,4.06475,0,0,1-.51339-1.97867,3.72013,3.72013,0,0,1,.26739-1.38828,1.92818,1.92818,0,0,1,.75083-1.2086l.93693-.56685-.23531-1.01822c-1.68774-7.36708,4.01939-14.01114,11.69021-14.19083.1861-.00428.37006-.00428.554-.00428.17969,0,.36579,0,.554.00428,7.66656.17969,13.378,6.82375,11.68807,14.19083l-.231,1.01822.93479.56685a1.9677,1.9677,0,0,1,.753,1.2086,3.84866,3.84866,0,0,1,.26311,1.38828,4.10823,4.10823,0,0,1-.50911,1.97867,3.74466,3.74466,0,0,1-3.46535,2.32735h-.27808l-.05562.35937a9.68678,9.68678,0,0,1-3.67925,6.16062l-.28022.21177v3.34985s10.14363,3.40331,14.76623,5.70927a4.933,4.933,0,0,1,2.661,3.583,107.34435,107.34435,0,0,1,.93051,12.4175Z"/></svg>