<?xml version="1.0" encoding="UTF-8" standalone="no"?> <svg xmlns="http://www.w3.org/2000/svg" viewBox="0 0 64 64"><g id="Layer_35" data-name="Layer 35"><path d="M60,49.49H4a1,1,0,0,0-1,1v3a1,1,0,0,0,1,1H8.4a3.65,3.65,0,1,0,5.15,5,3.65,3.65,0,1,0,5.15-5H45.78a3.65,3.65,0,1,0,5.14,5,3.65,3.65,0,0,0,6.7-2,3.65,3.65,0,0,0-1.55-3H60a1,1,0,0,0,1-1v-3A1,1,0,0,0,60,49.49ZM10.51,59.12a1.66,1.66,0,1,1,1.65-1.65A1.65,1.65,0,0,1,10.51,59.12Zm6.08,0a1.66,1.66,0,1,1,1.65-1.65A1.65,1.65,0,0,1,16.59,59.12Zm-3-3.67a3.86,3.86,0,0,0-.93-1h1.86A3.86,3.86,0,0,0,13.55,55.45Zm34.33,3.67a1.66,1.66,0,1,1,1.66-1.65A1.65,1.65,0,0,1,47.88,59.12Zm6.09,0a1.66,1.66,0,1,1,1.65-1.65A1.66,1.66,0,0,1,54,59.12Zm-3-3.67a3.54,3.54,0,0,0-.93-1h1.87A3.73,3.73,0,0,0,50.92,55.45Zm8.08-3H5v-1H59Z"/><path d="M4,48.87H45.48a1,1,0,0,0,1-1V22a1,1,0,0,0-1-1H32.65V9.1a1,1,0,0,0-1-1H4a1,1,0,0,0-1,1V47.87A1,1,0,0,0,4,48.87ZM9.74,23h2.34v2l-.59-.42a1,1,0,0,0-1.16,0l-.59.43ZM8.28,27.88a1,1,0,0,0,1-.07l1.59-1.13,1.59,1.13a1,1,0,0,0,.58.18,1,1,0,0,0,.46-.11,1,1,0,0,0,.54-.89V23h2.75V34H5V23H7.74v4A1,1,0,0,0,8.28,27.88ZM23.57,23H25.9v2l-.58-.42a1,1,0,0,0-1.16,0l-.59.43Zm-1.46,4.85a1,1,0,0,0,1-.07l1.59-1.13,1.58,1.13a1,1,0,0,0,.58.18.92.92,0,0,0,.46-.11A1,1,0,0,0,27.9,27V23h2.75V34H18.83V23h2.74v4A1,1,0,0,0,22.11,27.88ZM23.57,36H25.9v2l-.58-.41a1,1,0,0,0-1.16,0l-.59.42ZM9.74,36h2.34v2l-.59-.41a1,1,0,0,0-1.16,0L9.74,38ZM5,36H7.74v4a1,1,0,0,0,1.58.82l1.59-1.13,1.59,1.13a1,1,0,0,0,.58.18,1,1,0,0,0,.46-.11,1,1,0,0,0,.54-.89V36h2.75V46.87H5Zm13.83,0h2.74v4a1,1,0,0,0,1.58.82l1.59-1.13,1.58,1.13a1,1,0,0,0,.58.18.92.92,0,0,0,.46-.11,1,1,0,0,0,.54-.89V36h2.75V46.87H18.83ZM44.48,46.87H32.65V36h2.74v4a1,1,0,0,0,.54.89,1,1,0,0,0,1-.07l1.59-1.13,1.59,1.13a1,1,0,0,0,.58.18,1,1,0,0,0,.46-.11,1,1,0,0,0,.54-.89V36h2.75ZM37.39,36h2.34v2l-.59-.41a1,1,0,0,0-1.15,0l-.6.42Zm7.09-2H32.65V23h2.74v4a1,1,0,0,0,.54.89,1,1,0,0,0,1-.07l1.59-1.13,1.59,1.13a1,1,0,0,0,.58.18,1,1,0,0,0,.46-.11,1,1,0,0,0,.54-.89V23h2.75ZM39.73,23v2l-.59-.42a1,1,0,0,0-1.15,0l-.6.43V23Zm-9.08-2H18.83V10.1h2.74v4a1,1,0,0,0,.54.89,1,1,0,0,0,1-.07l1.59-1.13,1.58,1.13a1,1,0,0,0,1,.07,1,1,0,0,0,.54-.89v-4h2.75ZM25.9,10.1v2l-.58-.42a1,1,0,0,0-1.16,0l-.59.42v-2Zm-13.82,0v2l-.59-.42a1,1,0,0,0-1.16,0l-.59.42v-2ZM5,10.1H7.74v4a1,1,0,0,0,.54.89,1,1,0,0,0,1-.07l1.59-1.13,1.59,1.13a1,1,0,0,0,.58.18,1.11,1.11,0,0,0,.46-.11,1,1,0,0,0,.54-.89v-4h2.75V21H5Z"/></g></svg>